<svg xmlns="http://www.w3.org/2000/svg" viewBox="0 0 64 64" role="img" aria-label="Cognitive ETL favicon">
  <rect width="64" height="64" rx="14" fill="#f7f3ea"/>
  <rect x="2" y="2" width="60" height="60" rx="12" fill="none" stroke="#cbc0ab" stroke-width="2"/>
  <path d="M22 18c-5.5 0-10 4.5-10 10 0 3.5 1.8 6.5 4.6 8.3-.4 1-.6 2-.6 3.1 0 4.7 3.8 8.6 8.5 8.6 1.6 0 3.1-.4 4.4-1.2 1.6 1.5 3.7 2.4 6.1 2.4 5 0 9-4 9-9 0-.6-.1-1.2-.2-1.8 4.6-.9 8.1-5 8.1-9.9 0-5.5-4.5-10-10-10-.8 0-1.6.1-2.4.3C37.8 15.3 34.2 13 30 13c-4.5 0-8.4 2.6-10.2 6.4-.6-.3-1.3-.4-1.8-.4Z" fill="#efe2d3"/>
  <path d="M22 18c-5.5 0-10 4.5-10 10 0 3.5 1.8 6.5 4.6 8.3-.4 1-.6 2-.6 3.1 0 4.7 3.8 8.6 8.5 8.6 1.6 0 3.1-.4 4.4-1.2 1.6 1.5 3.7 2.4 6.1 2.4 5 0 9-4 9-9 0-.6-.1-1.2-.2-1.8 4.6-.9 8.1-5 8.1-9.9 0-5.5-4.5-10-10-10-.8 0-1.6.1-2.4.3C37.8 15.3 34.2 13 30 13c-4.5 0-8.4 2.6-10.2 6.4-.6-.3-1.3-.4-1.8-.4Z" fill="none" stroke="#8f3e22" stroke-width="2.2" stroke-linejoin="round"/>
  <circle cx="23" cy="27" r="3.2" fill="#8f3e22"/>
  <circle cx="18" cy="39" r="2.6" fill="#a9854f"/>
  <circle cx="31" cy="20" r="2.6" fill="#7c5d76"/>
  <circle cx="37" cy="31" r="3" fill="#6f7b61"/>
  <circle cx="28" cy="43" r="2.8" fill="#5f7381"/>
  <circle cx="46" cy="24" r="2.8" fill="#bf9b5f"/>
  <path d="M23 27l8-7m0 0 6 11m-14 12 5 0m-10-4 5 4m14-12 9-7" fill="none" stroke="#655949" stroke-width="1.8" stroke-linecap="round"/>
</svg>
